<svg xmlns="http://www.w3.org/2000/svg" width="115.9246" height="240.7818" viewBox="0 0 115.9246 240.7818"><g id="Layer_2" data-name="Layer 2"><g id="person3_v2" data-name="person3 v2"><path d="M112,232.7272H5.8485c-8.2633,0-8.2633,3.0546,3.1782,5.0546s9.8069,3,21.2484,3,65.7885-.0546,73.7567-4.0273S112,232.7272,112,232.7272" fill="#5b6b77"/><ellipse cx="77.1033" cy="26.9467" rx="17.0351" ry="17.9645" fill="#b5c2cd"/><path d="M101.1528,14.2659c0-6.42-4.935-11.6241-11.0227-11.6241A10.59,10.59,0,0,0,83.594,4.9213a10.7084,10.7084,0,0,0-18.5462.9158c-.1569-.0082-.3115-.0251-.47-.0251a9.79,9.79,0,0,0-9.52,10.039c0,.2626.0184.52.0372.7778A11.2907,11.2907,0,0,0,51.05,25.3616c0,6.128,4.7107,11.0957,10.5217,11.0957S72.093,31.49,72.093,25.3616a11.6756,11.6756,0,0,0-.2786-2.5021,10.472,10.472,0,0,0,2.7838.3886,10.59,10.59,0,0,0,6.5361-2.2794,11.3467,11.3467,0,0,0,3.0822,3.0958,9.4862,9.4862,0,0,0-.0987,1.2971,8.53,8.53,0,1,0,17.035,0,9.2692,9.2692,0,0,0-1.5554-5.1642A12.0315,12.0315,0,0,0,101.1528,14.2659Z" fill="#b5c2cd"/><polygon points="69.9 51.036 68.55 60.066 88.095 60.066 85.303 51.036 69.9 51.036" fill="#b5c2cd"/><path d="M88.1521,51.8266s-2.0681,4.107-19.6916,5.9114c-.42.043-.9129-9.9158-.9129-9.9158Z" fill="#434d50"/><path d="M77.1033,28.0034H60.0683V42.586c0,3.7954,3.407,7.2413,6.814,9.5385s6.814,2.2973,10.221,2.2973,6.814,0,10.2211-2.2973,6.814-5.7431,6.814-9.5385V28.0034Z" fill="#b5c2cd"/><ellipse cx="61.0703" cy="35.9289" rx="4.0082" ry="4.7553" fill="#b5c2cd"/><ellipse cx="93.1363" cy="35.9289" rx="4.0082" ry="4.7553" fill="#b5c2cd"/><path d="M66.6884,61.46s-13.9145,5.9061-16.0552,8.2686-4.2814,3.5436-6.4221,24.8057S41,148.87,41,148.87h2.1407s-1.07,10.631,3.2111,12.9935a8.7107,8.7107,0,0,0,8.237,0l2.4665-79.1421Z" fill="#b5c2cd"/><path d="M90.2362,61.46s13.9146,5.9061,16.0553,8.2686,4.2814,3.5436,6.4221,24.8057,3.211,54.3363,3.211,54.3363h-2.1407s1.07,10.631-3.211,12.9935a8.7109,8.7109,0,0,1-8.2371,0L99.8694,82.7215Z" fill="#b5c2cd"/><path d="M54.9146,81.54s-3.2111,51.9739-1.6056,61.2183c.1067.6141,5.887,72.7223,5.887,72.7223a17.5415,17.5415,0,0,1-6.6,8.9362c-5.1734,3.5951-4.15,8.2554-4.15,8.2554H77.392s2.1407-51.9093,0-63.4134c-.0562-.3019,4.2814-.3082,4.2814-.3082l2.513,63.7216h27.643s.8842-5.8416-2.3269-8.204-8.5628-5.9061-8.5628-10.631,5.3518-56.6988,4.2814-77.9609S103.08,81.54,103.08,81.54l4.2814-9.45S97.7287,60.2783,88.3747,59.097c-4.6542-.5877-20.6159,0-20.6159,0S47.39,68.659,48.3636,72.7326C48.4925,73.2717,54.9146,81.54,54.9146,81.54Z" fill="#b5c2cd"/></g></g></svg>