<svg xmlns="http://www.w3.org/2000/svg" width="157.0685" height="272.0547" viewBox="0 0 157.0685 272.0547"><g id="Layer_2" data-name="Layer 2"><g id="person9_v2" data-name="person9 v2"><path d="M137,264H7.1539c-10.1078,0-10.1078,3.0547,3.8876,5.0547s11.9961,3,25.9915,3,80.4734-.0547,90.22-4.0274S137,264,137,264" fill="#5b6b77"/><path d="M78.92,29.997S45.72,42.2041,39,54.3723l7.28,11.1931,5.76,37.4405c2.88,18.72.96,21.5283.96,21.5283s-9.6,69.2649-3.84,76.753c3.8639,5.0232,8,19.3832,11.84,32.4874A38.55,38.55,0,0,1,62,248.4H77s0-5.9281.96-22.7763c.7336-12.8742-4.8-26.2083-4.8-26.2083l6.1867-41.1439,5.3333-.0407L81.9155,29.997Z" fill="#b5c2cd"/><path d="M81.76,29.997s36.48,9.36,43.2,21.5282l-10.56,14.04-5.76,37.4405c-2.88,18.72-.96,21.5283-.96,21.5283s9.6,69.2649,3.84,76.753c-3.8639,5.0232-7.68,22.4643-11.52,35.5684-2.11,7.2,0,11.2322,0,11.2322H84a235.5976,235.5976,0,0,0,0-28.9384c-.7336-12.8741,3.52-19.7342,3.52-19.7342l-6.1867-41.1439L76,158.2306,78.7645,29.997Z" fill="#b5c2cd"/><path d="M125,51.4472s2.88,11.31,4.8,24.4143,3.84,23.4,3.84,23.4l5.9687,3.7033L139.4,117.9821s-6.72,6.023-13.44,6.5521-12.48.936-14.4-4.68-5.76-39.3125-5.76-39.3125l11.2278-31.8244Z" fill="#b5c2cd"/><path d="M144.2,101.1339s-12.48,1.872-12.48,10.2961,4.2574,9.3194,7.8887,11.68,13.5235,4.1917,15.7774,0S158.6,114.238,151.88,108.622,148.04,103.0059,144.2,101.1339Z" fill="#b5c2cd"/><polygon points="141.785 117.982 132.68 264 137.233 264 147.08 117.982 141.785 117.982" fill="#b5c2cd"/><path d="M45,48.5222s-7.2,2.067-8.16,13.2992S29,98.2587,29,105.0729c0,6.5521,21.92,25.35,21.92,25.35h4.8s.19-.1679,4.28,2.925,11-11.7,11-11.7L53.3039,80.623l-1.73-22.9177Z" fill="#b5c2cd"/><ellipse cx="80.9998" cy="24.3132" rx="17.0002" ry="17.3132" fill="#b5c2cd"/><path d="M94.2821,47.4783s-10.2737,8.3043-12.7779,9.913-13.5456-6.4995-13.5456-6.4995L69,44H93Z" fill="#434d50"/><path d="M81,24.7111,64.0886,23.1876S65.78,39.6764,65.78,42.9742s7.0688,7.7514,10.1468,9.8933a9.3048,9.3048,0,0,0,10.1468,0C89.1514,50.7256,96.22,46.272,96.22,42.9742S98,23.1719,98,23.1719Z" fill="#b5c2cd"/><path d="M63.2793,243.6483s-3.7587,11.7912-6.93,13.4422S53,263.62,53,263.62l25,.1438-1.26-20.2388H62.2607C62.8229,243.6,63.2793,243.6483,63.2793,243.6483Z" fill="#b5c2cd"/><path d="M98.8983,243.6483s4.0594,11.7912,7.4847,13.4422S110,263.62,110,263.62l-27,.1439,1.3612-20.2388H98C97.3928,243.6,98.8983,243.6483,98.8983,243.6483Z" fill="#b5c2cd"/><path d="M48,62.1724s-6,117.0015-3,132.6017h71.8261s1.913-58.0065.1739-69.9538-4.7192-62.6479-4.7192-62.6479Z" fill="#b5c2cd"/><circle cx="81.5" cy="9.5" r="9.5" fill="#b5c2cd"/></g></g></svg>