<svg xmlns="http://www.w3.org/2000/svg" width="123.1295" height="326.6972" viewBox="0 0 123.1295 326.6972"><g id="Layer_2" data-name="Layer 2"><g id="person2_v2" data-name="person2 v2"><path d="M116,318.6425H6.0573c-8.5584,0-8.5584,3.0547,3.2917,5.0547s10.1573,3,22.0074,3,68.1381-.0547,76.3908-4.0274S116,318.6425,116,318.6425" fill="#5b6b77"/><polygon points="84 66.643 58 66.643 59 50.643 83 50.643 84 66.643" fill="#b5c2cd"/><path d="M105.7594,86.9205,115.064,74.332c-4.0365-1.7407-11.0433-4.714-16.8165-7.6895-7.7609-4-8.2391-4-9.3278-6.9131s-5.9113-2.0869-5.9113-2.0869l.5413,1.0527-25.0173,1.801L60,57.6425s-4.8228-.8261-5.9114,2.0869-1.5669,2.9131-9.3277,6.9131c-5.7732,2.9755-12.78,5.9488-16.8166,7.6895L39.3561,89.7713c.9706,11.3134,3.5934,42.2979,3.6161,47.0451.0278,5.8261-3,3.4348-1.9861,7.63s1.9863,5.2826,1.9863,5.2826h59.68S106,144.6425,106,143.6425s-3-4-3-6,3-50.7174,3-50.7174Z" fill="#b5c2cd"/><path d="M30.2492,74.22c-1.4092.5521-2.4664.9717-2.9869,1.21-2.0326.9319-4.0315.8644-2.573,16.9228.373,4.1062-2.1,2.9307-.3377,9.9943s-3.525,30.7978-2.6162,52.8983a149.7579,149.7579,0,0,0,1.2856,16.0961l-.3039,8.9949,4.128.1394s-1.4674,9.9562-2.6357,14.92,3.6262,11.1288,5.5238,14.1947,8.9411-1.1118,8.9411-1.1118l.9779-28.94,2.1216-.5591,1.8888-85.2677Z" fill="#b5c2cd"/><path d="M114.9175,74.2331c1.4063.56,2.4611.985,2.98,1.2265,2.0275.9429,4.0267.8862,2.4812,16.9365-.3952,4.1041,2.0843,2.942.2836,9.9959s3.3583,30.8165,2.33,52.9117a149.7389,149.7389,0,0,1-1.3728,16.0889l.2553,8.9964-4.1288.1171s1.4135,9.964,2.5549,14.9336-3.6864,11.109-5.6006,14.1645-8.935-1.16-8.935-1.16l-.8211-28.9448-2.1185-.5706-1.4272-85.2767Z" fill="#b5c2cd"/><path d="M41.988,144.4551s-1.4424,12.8341-2.593,19.8969,1.818,65.15,2.9427,73.9784,3.0225,15.31,2.5134,25.4484-1.1106,24.3584-1.0351,33.3576c.0025.2979,4.5624.6329,4.5624.6329s-5.519,12.0934-10.176,13.7867-4.9175,6.6965-4.9175,6.6965L69.993,318.4,68.09,297.0583l6.43.2015L71.703,181.3163l2.4541.8,2.3212,116.1609,1.9809.0079-.4564,20.1469,38.7562.1558a5.4947,5.4947,0,0,0-2.9634-6.0258c-3.9161-2.035-13.7521-5.1035-15.5043-15.2068l8.2072-.9328s1.5145-11.5827.349-15.4064-4.2812-41.1927-4.2126-44.2213,4.3278-16.1367,3.4288-20.1789,1.1206-49.4674.1988-52.5-6.2311-19.4276-6.2311-19.4276Z" fill="#b5c2cd"/><path d="M84.2821,54.1208s-10.2737,8.3043-12.7779,9.913-13.5456-6.4995-13.5456-6.4995L59,50.6425H83Z" fill="#434d50"/><ellipse cx="70.9998" cy="29.8131" rx="17.0002" ry="17.7569" fill="#b5c2cd"/><path d="M71,30.2212,54.0886,28.6587S55.78,45.57,55.78,48.9523s7.0688,7.95,10.1468,10.1469a9.1107,9.1107,0,0,0,10.1468,0C79.1514,56.9024,86.22,52.3347,86.22,48.9523S88,28.6425,88,28.6425Z" fill="#b5c2cd"/><path d="M55,34.6425s-2-4-4-1-2.7826,7,.6087,11,2.3913,3,5.3913,2S55,34.6425,55,34.6425Z" fill="#b5c2cd"/><path d="M87.2407,34.6425s2-4,4-1,2.7826,7-.6087,11-2.3913,3-5.3913,2S87.2407,34.6425,87.2407,34.6425Z" fill="#b5c2cd"/><path d="M51,34.6425s-3-10-4-13S45.5642,15.36,49.2821,11.5012,64.0443,1.8382,68,.6425a16.7256,16.7256,0,0,1,15,3c5,4,16,11,12,21l-6,15Z" fill="#b5c2cd"/><path d="M54.4658,32.5268C54,12.6425,86,6.6425,86,6.6425,57,15.6425,54.4658,32.5268,54.4658,32.5268Z" fill="#555e61"/><path d="M71,12.6425s17,1,18,19C89.0537,32.6084,85,17.6425,71,12.6425Z" fill="#555e61"/></g></g></svg>