<svg xmlns="http://www.w3.org/2000/svg" width="115.397" height="245.0547" viewBox="0 0 115.397 245.0547"><g id="Layer_2" data-name="Layer 2"><g id="person4_v2" data-name="person4 v2"><path d="M112,237H5.8485c-8.2633,0-8.2633,3.0547,3.1782,5.0547s9.8069,3,21.2484,3,65.7885-.0547,73.7567-4.0274S112,237,112,237" fill="#5b6b77"/><ellipse cx="77.3404" cy="22.5469" rx="17.5608" ry="18.8024" fill="#b5c2cd"/><polygon points="68.123 47.256 66.732 56.707 86.881 56.707 84.002 47.256 68.123 47.256" fill="#b5c2cd"/><path d="M86.939,48.0837S84.807,52.3822,66.64,54.2708c-.4331.045-.941-10.3784-.941-10.3784Z" fill="#434d50"/><path d="M77.34,23.6529H59.78V38.9157c0,3.9725,3.5122,7.579,7.0243,9.9834s7.0243,2.4045,10.5365,2.4045,7.0243,0,10.5365-2.4045,7.0243-6.0109,7.0243-9.9834V23.6529Z" fill="#b5c2cd"/><ellipse cx="60.8126" cy="31.9481" rx="4.132" ry="4.9771" fill="#b5c2cd"/><ellipse cx="93.8682" cy="31.9481" rx="4.132" ry="4.9771" fill="#b5c2cd"/><path d="M67.8368,3.7445S61.1219.9418,56.6806,18.7225s-.4356,23.0644,6.58,26.2346S91.32,46.0138,91.32,46.0138s4.836-1.5851,7.0144-5.2836,1.0021-26.4184-9.0186-35.929C82.9182-1.2707,69.4052-1.5392,67.8368,3.7445Z" fill="#b5c2cd"/><path d="M64.8129,57.746S50.4689,63.9277,48.2622,66.4s-4.4136,3.709-6.62,25.9628-2.24,52.5113-2.24,52.5113l1.1365,4.36s-1.1034,11.1269,3.31,13.5995a8.8622,8.8622,0,0,0,8.4913,0L54.8825,80Z" fill="#b5c2cd"/><path d="M89.0874,57.746s14.344,6.1817,16.5508,8.6543,4.4136,3.709,6.62,25.9628,3.1385,50.1488,3.1385,50.1488l-2.0351,6.7221s1.1034,11.1269-3.31,13.5995a8.8622,8.8622,0,0,1-8.4913,0L99.0179,80Z" fill="#b5c2cd"/><path d="M52.6757,78.7635s-3.31,54.3983-1.6551,64.0738c.11.6428,6.0686,76.1145,6.0686,76.1145a18.3722,18.3722,0,0,1-6.8042,9.3531c-5.333,3.7627-4.2776,8.64-4.2776,8.64H75.8468s2.2068-54.3306,0-66.3713c-.0579-.3159,4.4135-.3225,4.4135-.3225l2.5906,66.6938H111.347s.9115-6.114-2.3986-8.5866-8.8271-6.1817-8.8271-11.127,5.5169-59.3435,4.4135-81.5973-2.2067-56.8709-2.2067-56.8709l4.4135-9.89s-9.9305-12.3633-19.5731-13.6c-4.7978-.6151-21.2522,0-21.2522,0S44.9189,65.2813,45.9225,69.545C46.0554,70.1093,52.6757,78.7635,52.6757,78.7635Z" fill="#b5c2cd"/><polygon points="51.176 132.459 47.965 189.761 106.834 189.761 103.623 122.431 51.176 132.459" fill="#b5c2cd"/></g></g></svg>