<svg xmlns="http://www.w3.org/2000/svg" width="139" height="307.4686" viewBox="0 0 139 307.4686"><g id="Layer_2" data-name="Layer 2"><g id="person1_v2" data-name="person1 v2"><path d="M116,299.4139H6.0573c-8.5584,0-8.5584,3.0547,3.2917,5.0547s10.1573,3,22.0074,3,68.1381-.0547,76.3908-4.0273S116,299.4139,116,299.4139" fill="#5b6b77"/><path d="M57,61.7942,40,264.4686a80.4222,80.4222,0,0,0,19,4c11,1,54.8261,1,59.913,0s12.087-5,12.087-5L111,61.7942Z" fill="#b5c2cd"/><path d="M64,15.4686s-4,19-7,25,0,5.913,0,10-3-2-5,3-8,5-9,12c0,0,22,13,33,16s22,4,29-4,18-15,18-15-7-9-9-11-5.7826-1.9415-5.7826-1.9415S110,48.4686,110,45.4686s-5-15-6-21-1-11.3146-5-14.1573S64,15.4686,64,15.4686Z" fill="#b5c2cd"/><ellipse cx="83" cy="20.8903" rx="20" ry="20.8903" fill="#b5c2cd"/><ellipse cx="82.4998" cy="27.546" rx="16.5002" ry="17.2347" fill="#b5c2cd"/><path d="M96.2821,49.9468S86.0084,58.2512,83.5042,59.86s-14.6475-5.6806-14.6475-5.6806l-1-9L95,46.4686Z" fill="#434d50"/><path d="M82.5,27.942,66.086,26.4254S66,42.91,67.7274,46.1222c1.5548,2.8914,6.861,7.7163,9.8484,9.8484a8.8424,8.8424,0,0,0,9.8484,0c2.9874-2.1321,8.805-6.7357,9.8484-9.8484C99,40.9686,99,26.41,99,26.41Z" fill="#b5c2cd"/><path d="M47,61.4686s-5.8261-1.5919-7.913,22.2041S29,130.4686,29,153.4686v23.6522h4.6087s-.1739,8.4923-.3913,14.42S38,199.4686,41,202.4686s6,0,6,0l10-136Z" fill="#b5c2cd"/><path d="M121,61.8164s5.8261-1.5918,7.913,22.2041S139,130.8164,139,153.8164v23.6522h-4.6087s.1739,8.4923.3913,14.42S130,199.8164,127,202.8164s-6,0-6,0l-10-136Z" fill="#b5c2cd"/><path d="M71,12.4686s-4.2865,4.913-4.1433,16.9565a163.2639,163.2639,0,0,0,2.07,23.087S67,20.4686,71,12.4686Z" fill="#434d50"/><path d="M93.8532,12.4686s4.2865,4.913,4.1433,16.9565a163.2639,163.2639,0,0,1-2.07,23.087S97.8532,20.4686,93.8532,12.4686Z" fill="#434d50"/><path d="M96.2821,21.9686S87,17.0773,83,17.2729,71.8532,21.2054,68.9266,22.837s-1.07,6.1751-1.07,6.1751S78,17.4686,88,20.4686,96.2821,21.9686,96.2821,21.9686Z" fill="#434d50"/><path d="M121,63.4686s-12,4-30,15-34-6.4131-34-6.4131,12.9507,9.05,19,8.4131C95,78.4686,102,67.4686,121,63.4686Z" fill="#434d50"/><path d="M68.2232,261.2512V278.86c0,3.6087-8.98,11.6087-11.2254,15.6087s0,4.9453,0,4.9453H84.5V259.686Z" fill="#b5c2cd"/><path d="M103.2768,261.2512V278.86c0,3.6087,8.98,11.6087,11.2254,15.6087s0,4.9453,0,4.9453H87V259.686Z" fill="#b5c2cd"/></g></g></svg>