<svg xmlns="http://www.w3.org/2000/svg" width="122" height="304.419" viewBox="0 0 122 304.419"><g id="Layer_2" data-name="Layer 2"><g id="person6_v2" data-name="person6 v2"><path d="M108,296.3643H5.64c-7.9682,0-7.9682,3.0547,3.0647,5.0547s9.4567,3,20.49,3,63.4389-.0547,71.1225-4.0273S108,296.3643,108,296.3643" fill="#5b6b77"/><path d="M75.5217,3.278S52-7.6357,47,10.3643s-6.6957,21.8311-6,28c.039.3459-17,0-10,18,0,0-12,6-6,18s83,6,83,6,13-4,8-16c-2.9291-7.03-7-8-7-8s4-18-12-18c-.0435,0-3.8261-23.3146-7.913-31.1573S75.5217,3.278,75.5217,3.278Z" fill="#b5c2cd"/><ellipse cx="68.4998" cy="24.4417" rx="16.5002" ry="17.2347" fill="#b5c2cd"/><path d="M82,46.8426s-9.3971,8.3043-11.6877,9.913S56.9147,51.075,56.9147,51.075l-.9147-9,24.8273,1.2893Z" fill="#434d50"/><path d="M68.5,24.8377,52.086,23.3212S52,39.8055,53.7274,43.018c1.5548,2.8913,6.861,7.7162,9.8484,9.8484a8.8429,8.8429,0,0,0,9.8484,0c2.9874-2.1322,8.805-6.7358,9.8484-9.8484C85,37.8643,85,23.3055,85,23.3055Z" fill="#b5c2cd"/><path d="M52,61.7517S31,66.3643,29,74.3643l14,8.03s0,10.1878-1,24.5791,0,35.3056,0,35.3056-4,21.0857-4,32.0857,5,53,8,69,1,35,1,35H69.5246L69,180.5382l3-.1739,5.087,98H98.4783s1.5217-28,1.5217-37,6.1739-57.1956,3.087-72.0978S98,122.3643,99,113.3643,96.4061,79.77,96.4061,79.77L111,73.3643s-8-7-26-11.6666C76.6107,59.5227,52,61.7517,52,61.7517Z" fill="#b5c2cd"/><path d="M50.977,275.4911s-5.1107,12.0934-9.4232,13.7867S37,295.9743,37,295.9743l33.993.1475-1.7137-20.7575H49.5919C50.3564,275.4417,50.977,275.4911,50.977,275.4911Z" fill="#b5c2cd"/><path d="M95.016,275.4911s5.1108,12.0934,9.4233,13.7867,4.5537,6.6965,4.5537,6.6965L75,296.1218l1.7137-20.7575H96.4011C95.6366,275.4417,95.016,275.4911,95.016,275.4911Z" fill="#b5c2cd"/><path d="M45,67.3643S28,70.7122,29,84.5382s-12,68.8261-9,86.8261h4.3913s1.1581,17.3732,7.8834,18.1866,8.8123,0,8.8123,0Z" fill="#b5c2cd"/><path d="M96.5494,67.3643s17,3.3479,16,17.1739,12,68.8261,9,86.8261h-4.3913S116,188.7375,109.2747,189.5509s-8.8122,0-8.8122,0Z" fill="#b5c2cd"/></g></g></svg>