<svg xmlns="http://www.w3.org/2000/svg" width="138" height="308.169" viewBox="0 0 138 308.169"><g id="Layer_2" data-name="Layer 2"><g id="person5_v2" data-name="person5 v2"><path d="M129,300.1143H6.7362c-9.5176,0-9.5176,3.0547,3.6606,5.0547s11.2955,3,24.4737,3,75.7742-.0547,84.9519-4.0274S129,300.1143,129,300.1143" fill="#5b6b77"/><path d="M47.2349,82.1143s-7.7889,42-5.4113,83-.0436,51,1.9419,61.5,6.3821,33.5,3.5737,37.5-.1244,13,1.6,19.3044c.0815.298,30.2261,1.5,30.2261,1.5l1.8624-98.087-.9213-1.7174,6.0831,98.4368h33.3866s1.9849-14.4368.775-26.4368,2.303-22.5,3.0381-28-1.1608-64.6522-1.1608-64.6522l-4.8665-77.3478,9.36-20a72.1585,72.1585,0,0,0-28.4633-10H64.3756s-22.48,4-28.0677,9Z" fill="#b5c2cd"/><path d="M39.9269,66.1143s-6.4634-6-9.2335,18-3.6934,92-3.6934,92h3.3722s-.2007,13.3732,1.4453,17.1866,3.4927,2.8134,8.1094,4.8134a6.0683,6.0683,0,0,0,7.3868-2v-114Z" fill="#b5c2cd"/><path d="M122.2685,66.2225s6.3077-6.1913,9.69,17.7165S138,175.7932,138,175.7932l-3.3709.101s.5422,13.362-1.0058,17.2233-3.4195,2.917-7.9834,5.0545a6.0477,6.0477,0,0,1-7.435-1.7779L115.2932,82.4377Z" fill="#b5c2cd"/><path d="M70,45.1143s-2,12-4,14,31.5,0,31.5,0-4.5-11-4.5-15S70,45.1143,70,45.1143Z" fill="#b5c2cd"/><path d="M98,48.2056s-11.7248,9.768-14.5826,11.66-15.4588-7.6451-15.4588-7.6451l1.1885-8.1065h27.39Z" fill="#434d50"/><ellipse cx="81.4998" cy="24.7849" rx="17.0002" ry="17.7569" fill="#b5c2cd"/><path d="M81.5,25.193,64.5886,23.6305S64.5,40.5419,64.5,43.9241s6.5734,7.7335,11.5,10.19a14.4655,14.4655,0,0,0,6,1,14.8285,14.8285,0,0,0,6-1.0433c4.9266-2.4567,11.5-6.7645,11.5-10.1469s-1-20.31-1-20.31Z" fill="#b5c2cd"/><path d="M69,5.1143s-3.7574-.4853-8,8c-2,4-2,4.5652,0,17.7826S71,14.1143,71,14.1143L98.8407,29.5869S103,29.1143,103,27.1143s2-16.1726-3.5-20.0863S77-4.8857,69,4.1143" fill="#b5c2cd"/><path d="M99.2407,28.1143s2-4,4-1,2.7826,7-.6087,11-2.3913,3-5.3913,2S99.2407,28.1143,99.2407,28.1143Z" fill="#b5c2cd"/><path d="M64,28.1143s-2-4-4-1-2.7826,7,.6087,11,2.3913,3,5.3913,2S64,28.1143,64,28.1143Z" fill="#b5c2cd"/><path d="M54.8553,279.2411s-6.1633,12.0934-11.3638,13.7867A7.8756,7.8756,0,0,0,38,299.7242l40.993.1476-2.0666-20.7575H53.1849C54.1069,279.1917,54.8553,279.2411,54.8553,279.2411Z" fill="#b5c2cd"/><path d="M112.1378,279.2411s6.1632,12.0934,11.3637,13.7867a7.8756,7.8756,0,0,1,5.4915,6.6964L88,299.8718l2.0666-20.7575h23.7415C112.8862,279.1917,112.1378,279.2411,112.1378,279.2411Z" fill="#b5c2cd"/></g></g></svg>