<svg xmlns="http://www.w3.org/2000/svg" width="119.5245" height="299.0298" viewBox="0 0 119.5245 299.0298"><g id="Layer_2" data-name="Layer 2"><g id="person7_v2" data-name="person7 v2"><path d="M108,290.9751H5.64c-7.9682,0-7.9682,3.0547,3.0647,5.0547s9.4567,3,20.49,3,63.4389-.0547,71.1225-4.0273S108,290.9751,108,290.9751" fill="#5b6b77"/><path d="M73.6957,1.5753s-17.1315-7.7008-25.4136,10.95S52.6077,35.3228,50,39.8424a10.5978,10.5978,0,0,0,12.3951-2.6C68,31.1763,79.981,42.8508,87,40.709c.3913-.1194-2-2.7828,0-9.6241S92.3913-1.1608,73.6957,1.5753Z" fill="#b5c2cd"/><path d="M83.2407,22.9751s2-4,4-1,2.7826,7-.6087,11-2.3913,3-5.3913,2S83.2407,22.9751,83.2407,22.9751Z" fill="#b5c2cd"/><path d="M54,22.9751s-2-4-4-1-2.7826,7,.6087,11,2.3913,3,5.3913,2S54,22.9751,54,22.9751Z" fill="#b5c2cd"/><ellipse cx="68.4998" cy="19.0525" rx="16.5002" ry="17.2347" fill="#b5c2cd"/><path d="M57.6766,43.9751s-1.8417,12-3.6834,14,29.0068,0,29.0068,0-4.1438-11-4.1438-15S57.6766,43.9751,57.6766,43.9751Z" fill="#b5c2cd"/><path d="M81,41.4534s-9.0357,8.3043-11.2381,9.913S56.88,45.6858,56.88,45.6858l-.88-9,23.8724,1.2893Z" fill="#434d50"/><path d="M68.5,19.4485,52.086,17.932S52,34.4163,53.7274,37.6288c1.5548,2.8913,6.861,7.7162,9.8484,9.8484a8.8429,8.8429,0,0,0,9.8484,0c2.9874-2.1322,8.805-6.7358,9.8484-9.8484C85,32.4751,85,17.9163,85,17.9163Z" fill="#b5c2cd"/><path d="M51,56.3625S30,60.9751,28,68.9751l8,10s2,17.3913,3,30c1.1406,14.3809,2,27.9143,2,27.9143s-2,23.0857-2,34.0857,2,51,5,67,1,35,1,35H68.5246L68,175.149l3-.1739,5.087,98H100s-1-28-1-37,4.087-57.0978,1-72-2.6452-46.9676-2-56c1-14,2-32,2-32l10-8s-8-7-26-11.6666C75.6107,54.1335,51,56.3625,51,56.3625Z" fill="#b5c2cd"/><path d="M49.977,270.1019s-5.1107,12.0934-9.4232,13.7867S36,290.5851,36,290.5851l33.993.1475-1.7137-20.7575H48.5919C49.3564,270.0525,49.977,270.1019,49.977,270.1019Z" fill="#b5c2cd"/><path d="M94.016,270.1019s5.1108,12.0934,9.4233,13.7867,4.5537,6.6965,4.5537,6.6965L74,290.7326l1.7137-20.7575H95.4011C94.6366,270.0525,94.016,270.1019,94.016,270.1019Z" fill="#b5c2cd"/><path d="M40.438,61.3422S23.66,65.6668,25.4571,79.412s-8.0028,69.4045-3.9676,87.201l4.3839-.2537s2.16,17.2772,8.9212,17.7006,8.7975-.5092,8.7975-.5092Z" fill="#b5c2cd"/><path d="M98.1805,61.4871s16.8414,4.0716,15.2512,17.8423,9.0467,69.2761,5.28,87.1314l-4.3873-.1877s-1.9,17.3077-8.6537,17.8329-8.8042-.3767-8.8042-.3767Z" fill="#b5c2cd"/></g></g></svg>