<svg xmlns="http://www.w3.org/2000/svg" width="156.0685" height="271.641" viewBox="0 0 156.0685 271.641"><g id="Layer_2" data-name="Layer 2"><g id="person8_v2" data-name="person8 v2"><path d="M135,263.5863H7.05c-9.96,0-9.96,3.0547,3.8308,5.0547s11.821,3,25.612,3,79.2987-.0547,88.9032-4.0274S135,263.5863,135,263.5863" fill="#5b6b77"/><path d="M77.92,23.5863s-36.48,9.6-43.2,22.08l10.56,14.4,5.76,38.4c2.88,19.2.96,22.08.96,22.08s-9.6,71.04-3.84,78.72c3.8639,5.1519,7.68,23.04,11.52,36.48,2.11,7.3845,0,11.52,0,11.52H77.92s-1.92-5.76-.96-23.04c.7336-13.2041-4.8-26.88-4.8-26.88l6.1867-42.1983,5.3333-.0417-2.7645-131.52Z" fill="#b5c2cd"/><path d="M81.76,23.5863s36.48,9.6,43.2,22.08l-10.56,14.4-5.76,38.4c-2.88,19.2-.96,22.08-.96,22.08s9.6,71.04,3.84,78.72c-3.8639,5.1519-7.68,23.04-11.52,36.48-2.11,7.3845,0,11.52,0,11.52H81.76s1.92-5.76.96-23.04c-.7336-13.2041,4.8-26.88,4.8-26.88L81.3333,155.148,76,155.1063l2.7645-131.52Z" fill="#b5c2cd"/><path d="M125,45.5863s1.88,11.6,3.8,25.04,3.84,24,3.84,24l5.9687,3.7983L138.4,113.8263s-6.72,6.1774-13.44,6.72-12.48.96-14.4-4.8-5.76-40.32-5.76-40.32l11.2278-32.64Z" fill="#b5c2cd"/><path d="M143.2,96.5463s-12.48,1.92-12.48,10.56,4.2574,9.5583,7.8887,11.9791,13.5235,4.2992,15.7774,0,3.2139-9.0991-3.5061-14.8591S147.04,98.4663,143.2,96.5463Z" fill="#b5c2cd"/><polygon points="140.785 113.826 131.68 263.586 136.233 263.586 146.08 113.826 140.785 113.826" fill="#b5c2cd"/><path d="M38.31,42.7863s-5.51,1.92-6.47,13.44S28,109.7174,28,116.7063c0,6.72,1.92,22.08,1.92,22.08h4.8s-.5009,10.9357,3.59,14.1078,12.73.2922,12.73.2922L48.3039,75.51l-1.73-23.5051Z" fill="#b5c2cd"/><path d="M93.2821,42.0646s-10.2737,8.3043-12.7779,9.913-13.5456-6.5-13.5456-6.5L68,38.5863H92Z" fill="#434d50"/><ellipse cx="79.9998" cy="17.7569" rx="17.0002" ry="17.7569" fill="#b5c2cd"/><path d="M80,18.165,63.0886,16.6025S64.78,33.5139,64.78,36.8961s7.0688,7.95,10.1468,10.1469a9.1107,9.1107,0,0,0,10.1468,0C88.1514,44.8462,95.22,40.2784,95.22,36.8961S97,16.5863,97,16.5863Z" fill="#b5c2cd"/><path d="M62.2793,242.7131s-3.7587,12.0934-6.93,13.7867S52,263.1962,52,263.1962l25,.1476-1.26-20.7575H61.2607C61.8229,242.6637,62.2793,242.7131,62.2793,242.7131Z" fill="#b5c2cd"/><path d="M97.8983,242.713s4.0594,12.0934,7.4847,13.7867S109,263.1962,109,263.1962l-27,.1475,1.3612-20.7574H98.9984C98.3912,242.6637,97.8983,242.713,97.8983,242.713Z" fill="#b5c2cd"/></g></g></svg>