<svg xmlns="http://www.w3.org/2000/svg" viewBox="0 0 110 299.41"><defs><style>.cls-1{fill:#b5c2cd;}.cls-2{fill:#434d50;}</style></defs><g id="Layer_2" data-name="Layer 2"><g id="Layer_4" data-name="Layer 4"><path class="cls-1" d="M28,61.79,11,264.47a80.42,80.42,0,0,0,19,4c11,1,54.83,1,59.91,0s12.09-5,12.09-5L82,61.79Z"/><path class="cls-1" d="M35,15.47s-4,19-7,25,0,5.91,0,10-3-2-5,3-8,5-9,12c0,0,22,13,33,16s22,4,29-4,18-15,18-15-7-9-9-11-5.78-1.94-5.78-1.94S81,48.47,81,45.47s-5-15-6-21-1-11.32-5-14.16S35,15.47,35,15.47Z"/><ellipse class="cls-1" cx="54" cy="20.89" rx="20" ry="20.89"/><ellipse class="cls-1" cx="53.5" cy="27.55" rx="16.5" ry="17.23"/><path class="cls-2" d="M67.28,50S57,58.25,54.5,59.86s-14.64-5.68-14.64-5.68l-1-9L66,46.47Z"/><path class="cls-1" d="M53.5,27.94,37.09,26.43S37,42.91,38.73,46.12C40.28,49,45.59,53.84,48.58,56a8.82,8.82,0,0,0,9.84,0c3-2.13,8.81-6.74,9.85-9.85C70,41,70,26.41,70,26.41Z"/><path class="cls-1" d="M18,61.47s-5.83-1.59-7.91,22.2S0,130.47,0,153.47v23.65H4.61s-.18,8.49-.39,14.42S9,199.47,12,202.47s6,0,6,0l10-136Z"/><path class="cls-1" d="M92,61.82s5.83-1.6,7.91,22.2S110,130.82,110,153.82v23.65h-4.61s.18,8.49.39,14.42S101,199.82,98,202.82s-6,0-6,0l-10-136Z"/><path class="cls-2" d="M42,12.47s-4.29,4.91-4.14,17a162.58,162.58,0,0,0,2.07,23.08S38,20.47,42,12.47Z"/><path class="cls-2" d="M64.85,12.47s4.29,4.91,4.15,17a164.32,164.32,0,0,1-2.07,23.08S68.85,20.47,64.85,12.47Z"/><path class="cls-2" d="M67.28,22S58,17.08,54,17.27s-11.15,3.94-14.07,5.57S38.86,29,38.86,29,49,17.47,59,20.47,67.28,22,67.28,22Z"/><path class="cls-2" d="M92,63.47s-12,4-30,15-34-6.41-34-6.41,13,9,19,8.41C66,78.47,73,67.47,92,63.47Z"/><path class="cls-1" d="M39.22,261.25v17.61c0,3.61-9,11.61-11.22,15.61s0,4.94,0,4.94H55.5V259.69Z"/><path class="cls-1" d="M74.28,261.25v17.61c0,3.61,9,11.61,11.22,15.61s0,4.94,0,4.94H58V259.69Z"/></g></g></svg>