<svg xmlns="http://www.w3.org/2000/svg" viewBox="0 0 75.99 236.95"><defs><style>.cls-1{fill:#b5c2cd;}.cls-2{fill:#434d50;}</style></defs><g id="Layer_2" data-name="Layer 2"><g id="Layer_5_copy" data-name="Layer 5 copy"><ellipse class="cls-1" cx="37.94" cy="22.55" rx="17.56" ry="18.8"/><polygon class="cls-1" points="28.72 47.26 27.33 56.71 47.48 56.71 44.6 47.26 28.72 47.26"/><path class="cls-2" d="M47.54,48.08s-2.13,4.3-20.3,6.19c-.44,0-.94-10.38-.94-10.38Z"/><path class="cls-1" d="M37.94,23.65H20.38V38.92c0,4,3.51,7.57,7,10s7,2.4,10.54,2.4,7,0,10.53-2.4,7-6,7-10V23.65Z"/><ellipse class="cls-1" cx="21.41" cy="31.95" rx="4.13" ry="4.98"/><ellipse class="cls-1" cx="54.47" cy="31.95" rx="4.13" ry="4.98"/><path class="cls-1" d="M28.43,3.74s-6.71-2.8-11.15,15S16.84,41.79,23.86,45s28.06,1,28.06,1,4.83-1.58,7-5.28,1-26.42-9-35.93C43.52-1.27,30-1.54,28.43,3.74Z"/><path class="cls-1" d="M25.41,57.75S11.07,63.93,8.86,66.4s-4.41,3.71-6.62,26S0,144.87,0,144.87l1.14,4.36S0,160.36,4.45,162.83a8.84,8.84,0,0,0,8.49,0L15.48,80Z"/><path class="cls-1" d="M49.69,57.75S64,63.93,66.24,66.4s4.41,3.71,6.62,26S76,142.51,76,142.51l-2,6.72s1.1,11.13-3.31,13.6a8.84,8.84,0,0,1-8.49,0L59.62,80Z"/><path class="cls-1" d="M13.27,78.76s-3.31,54.4-1.65,64.08c.11.64,6.07,76.11,6.07,76.11a18.34,18.34,0,0,1-6.81,9.35C5.55,232.07,6.61,237,6.61,237H36.44s2.21-54.34,0-66.38c0-.31,4.42-.32,4.42-.32L43.45,237H71.94s.92-6.12-2.39-8.59-8.83-6.18-8.83-11.13,5.52-59.34,4.41-81.6-2.2-56.87-2.2-56.87l4.41-9.89s-9.93-12.36-19.57-13.6c-4.8-.61-21.26,0-21.26,0s-21,10-20,14.27C6.65,70.11,13.27,78.76,13.27,78.76Z"/><polygon class="cls-1" points="11.77 132.46 8.56 189.76 67.43 189.76 64.22 122.43 11.77 132.46"/></g></g></svg>