<svg xmlns="http://www.w3.org/2000/svg" viewBox="0 0 111 299.87"><defs><style>.cls-1{fill:#b5c2cd;}.cls-2{fill:#434d50;}</style></defs><g id="Layer_2" data-name="Layer 2"><g id="Layer_7" data-name="Layer 7"><path class="cls-1" d="M20.23,82.11s-7.78,42-5.41,83,0,51,1.95,61.5,6.38,33.5,3.57,37.5-.13,13,1.6,19.31c.08.3,30.23,1.5,30.23,1.5L54,186.83l-.92-1.72,6.08,98.44H92.58s2-14.44.77-26.44,2.3-22.5,3-28-1.16-64.65-1.16-64.65L90.36,87.11l9.36-20a72.13,72.13,0,0,0-28.46-10H37.38s-22.48,4-28.07,9Z"/><path class="cls-1" d="M12.93,66.11s-6.47-6-9.24,18-3.69,92-3.69,92H3.37s-.2,13.38,1.45,17.19,3.49,2.81,8.11,4.81a6.06,6.06,0,0,0,7.38-2v-114Z"/><path class="cls-1" d="M95.27,66.22S101.58,60,105,83.94s6,91.85,6,91.85l-3.37.1s.54,13.37-1,17.23-3.42,2.91-8,5a6.06,6.06,0,0,1-7.44-1.78L88.29,82.44Z"/><path class="cls-1" d="M43,45.11s-2,12-4,14,31.5,0,31.5,0-4.5-11-4.5-15S43,45.11,43,45.11Z"/><path class="cls-2" d="M71,48.21S59.28,58,56.42,59.87,41,52.22,41,52.22l1.19-8.11H69.54Z"/><ellipse class="cls-1" cx="54.5" cy="24.78" rx="17" ry="17.76"/><path class="cls-1" d="M54.5,25.19,37.59,23.63s-.09,16.91-.09,20.29S44.07,51.66,49,54.11a14.39,14.39,0,0,0,6,1,14.72,14.72,0,0,0,6-1c4.93-2.46,11.5-6.76,11.5-10.15s-1-20.31-1-20.31Z"/><path class="cls-1" d="M42,5.11s-3.76-.48-8,8c-2,4-2,4.57,0,17.79S44,14.11,44,14.11L71.84,29.59S76,29.11,76,27.11,78,10.94,72.5,7,50-4.89,42,4.11"/><path class="cls-1" d="M72.24,28.11s2-4,4-1,2.78,7-.61,11-2.39,3-5.39,2S72.24,28.11,72.24,28.11Z"/><path class="cls-1" d="M37,28.11s-2-4-4-1-2.78,7,.61,11,2.39,3,5.39,2S37,28.11,37,28.11Z"/><path class="cls-1" d="M27.86,279.24S21.69,291.33,16.49,293A7.87,7.87,0,0,0,11,299.72l41,.15-2.06-20.76H26.18Z"/><path class="cls-1" d="M85.14,279.24S91.3,291.33,96.5,293a7.87,7.87,0,0,1,5.49,6.69l-41,.15,2.07-20.76H86.81Z"/></g></g></svg>