<svg xmlns="http://www.w3.org/2000/svg" viewBox="0 0 74.92 232.67"><defs><style>.cls-1{fill:#b5c2cd;}.cls-2{fill:#434d50;}</style></defs><g id="Layer_2" data-name="Layer 2"><g id="Layer_5" data-name="Layer 5"><ellipse class="cls-1" cx="36.1" cy="26.95" rx="17.04" ry="17.96"/><path class="cls-1" d="M60.15,14.27c0-6.42-4.93-11.63-11-11.63a10.64,10.64,0,0,0-6.54,2.28,10.7,10.7,0,0,0-18.54.92c-.16,0-.31,0-.47,0a9.79,9.79,0,0,0-9.52,10c0,.26,0,.52,0,.78a11.28,11.28,0,0,0-4,8.73c0,6.13,4.71,11.1,10.52,11.1s10.52-5,10.52-11.1a11.4,11.4,0,0,0-.28-2.5,10.74,10.74,0,0,0,2.79.39A10.61,10.61,0,0,0,40.13,21a11.36,11.36,0,0,0,3.09,3.09,9.36,9.36,0,0,0-.1,1.3,8.53,8.53,0,1,0,17,0A9.31,9.31,0,0,0,58.6,20.2,12,12,0,0,0,60.15,14.27Z"/><polygon class="cls-1" points="28.9 51.04 27.55 60.07 47.09 60.07 44.3 51.04 28.9 51.04"/><path class="cls-2" d="M47.15,51.83s-2.07,4.1-19.69,5.91c-.42,0-.91-9.92-.91-9.92Z"/><path class="cls-1" d="M36.1,28h-17V42.59c0,3.79,3.41,7.24,6.81,9.53s6.82,2.3,10.22,2.3,6.82,0,10.22-2.3,6.82-5.74,6.82-9.53V28Z"/><ellipse class="cls-1" cx="20.07" cy="35.93" rx="4.01" ry="4.76"/><ellipse class="cls-1" cx="52.14" cy="35.93" rx="4.01" ry="4.76"/><path class="cls-1" d="M25.69,61.46S11.77,67.37,9.63,69.73s-4.28,3.54-6.42,24.8S0,148.87,0,148.87H2.14s-1.07,10.63,3.21,13a8.69,8.69,0,0,0,8.24,0l2.47-79.14Z"/><path class="cls-1" d="M49.24,61.46s13.91,5.91,16.05,8.27,4.28,3.54,6.42,24.8,3.21,54.34,3.21,54.34H72.78s1.07,10.63-3.21,13a8.67,8.67,0,0,1-8.23,0L58.87,82.72Z"/><path class="cls-1" d="M13.91,81.54s-3.21,52-1.6,61.22c.11.61,5.89,72.72,5.89,72.72a17.58,17.58,0,0,1-6.6,8.94c-5.18,3.59-4.15,8.25-4.15,8.25H36.39s2.14-51.91,0-63.41c0-.3,4.28-.31,4.28-.31l2.52,63.72H70.83s.88-5.84-2.33-8.2-8.56-5.91-8.56-10.63,5.35-56.7,4.28-78-2.14-54.34-2.14-54.34l4.28-9.45s-9.63-11.81-19-13c-4.65-.59-20.61,0-20.61,0S6.39,68.66,7.36,72.73C7.49,73.27,13.91,81.54,13.91,81.54Z"/></g></g></svg>