<svg xmlns="http://www.w3.org/2000/svg" viewBox="0 0 128.07 264"><defs><style>.cls-1{fill:#b5c2cd;}.cls-2{fill:#434d50;}</style></defs><g id="Layer_2" data-name="Layer 2"><g id="Layer_9_copy" data-name="Layer 9 copy"><path class="cls-1" d="M49.92,30S16.72,42.2,10,54.37l7.28,11.2L23,103c2.88,18.72,1,21.52,1,21.52s-9.6,69.27-3.84,76.76c3.86,5,8,19.38,11.84,32.48a38.57,38.57,0,0,1,1,14.63H48s0-5.93,1-22.78c.73-12.87-4.8-26.2-4.8-26.2l6.19-41.15,5.33,0L52.92,30Z"/><path class="cls-1" d="M52.76,30S89.24,39.36,96,51.53l-10.56,14L79.64,103c-2.88,18.72-1,21.52-1,21.52s9.6,69.27,3.84,76.76c-3.86,5-7.68,22.46-11.52,35.57-2.11,7.2,0,11.23,0,11.23H55a235.62,235.62,0,0,0,0-28.94c-.73-12.87,3.52-19.73,3.52-19.73l-6.19-41.15-5.33,0L49.76,30Z"/><path class="cls-1" d="M96,51.45s2.88,11.31,4.8,24.41,3.84,23.4,3.84,23.4l6,3.71-.21,15s-6.72,6-13.44,6.55-12.48.94-14.4-4.68S76.8,80.54,76.8,80.54L88,48.72Z"/><path class="cls-1" d="M115.2,101.13s-12.48,1.88-12.48,10.3,4.26,9.32,7.89,11.68,13.52,4.19,15.78,0,3.21-8.87-3.51-14.49S119,103,115.2,101.13Z"/><polygon class="cls-1" points="112.78 117.98 103.68 264 108.23 264 118.08 117.98 112.78 117.98"/><path class="cls-1" d="M16,48.52s-7.2,2.07-8.16,13.3S0,98.26,0,105.07c0,6.56,21.92,25.35,21.92,25.35h4.8s.19-.16,4.28,2.93,11-11.7,11-11.7l-17.7-41L22.57,57.71Z"/><path class="cls-2" d="M65.28,48S55,56.11,52.5,57.68,39,51.34,39,51.34l1-6.72H64Z"/><ellipse class="cls-1" cx="52" cy="24.31" rx="17" ry="17.31"/><path class="cls-1" d="M52,24.71,35.09,23.19S36.78,39.68,36.78,43s7.07,7.76,10.15,9.9a9.32,9.32,0,0,0,10.14,0c3.08-2.14,10.15-6.6,10.15-9.9S69,23.17,69,23.17Z"/><path class="cls-1" d="M34.28,243.65s-3.76,11.79-6.93,13.44S24,263.62,24,263.62l25,.14-1.26-20.24H33.26Z"/><path class="cls-1" d="M69.9,243.65s4.06,11.79,7.48,13.44S81,263.62,81,263.62l-27,.14,1.36-20.24H69C68.39,243.6,69.9,243.65,69.9,243.65Z"/><path class="cls-1" d="M19,62.17s-6,117-3,132.6H87.83s1.91-58,.17-70-4.72-62.65-4.72-62.65Z"/><circle class="cls-1" cx="52.5" cy="9.5" r="9.5"/></g></g></svg>