<svg xmlns="http://www.w3.org/2000/svg" viewBox="0 0 102.45 296.12"><defs><style>.cls-1{fill:#b5c2cd;}.cls-2{fill:#434d50;}</style></defs><g id="Layer_2" data-name="Layer 2"><g id="Layer_8" data-name="Layer 8"><path class="cls-1" d="M56,3.28S32.45-7.64,27.45,10.36s-6.7,21.84-6,28c0,.35-17,0-10,18,0,0-12,6-6,18s83,6,83,6,13-4,8-16c-2.93-7-7-8-7-8s4-18-12-18c0,0-3.83-23.31-7.91-31.15S56,3.28,56,3.28Z"/><ellipse class="cls-1" cx="48.95" cy="24.44" rx="16.5" ry="17.23"/><path class="cls-2" d="M62.45,46.84s-9.4,8.31-11.69,9.92-13.39-5.68-13.39-5.68l-.92-9,24.83,1.28Z"/><path class="cls-1" d="M49,24.84,32.54,23.32S32.45,39.81,34.18,43C35.73,45.91,41,50.73,44,52.87a8.87,8.87,0,0,0,9.84,0c3-2.14,8.81-6.74,9.85-9.85,1.73-5.16,1.73-19.71,1.73-19.71Z"/><path class="cls-1" d="M32.45,61.75s-21,4.61-23,12.61l14,8s0,10.19-1,24.58,0,35.31,0,35.31-4,21.08-4,32.08,5,53,8,69,1,35,1,35H50l-.53-97.82,3-.18,5.09,98H78.93s1.52-28,1.52-37,6.17-57.19,3.09-72.09-5.09-46.91-4.09-55.91-2.59-33.59-2.59-33.59l14.59-6.41s-8-7-26-11.66C57.06,59.52,32.45,61.75,32.45,61.75Z"/><path class="cls-1" d="M31.43,275.49S26.32,287.58,22,289.28,17.45,296,17.45,296l34,.15-1.71-20.76H30Z"/><path class="cls-1" d="M75.47,275.49s5.11,12.09,9.42,13.79S89.44,296,89.44,296l-34,.15,1.71-20.76H76.85Z"/><path class="cls-1" d="M25.45,67.36s-17,3.35-16,17.18-12,68.82-9,86.82H4.84S6,188.74,12.73,189.55s8.81,0,8.81,0Z"/><path class="cls-1" d="M77,67.36s17,3.35,16,17.18,12,68.82,9,86.82H97.61s-1.16,17.38-7.88,18.19-8.82,0-8.82,0Z"/></g></g></svg>