<svg xmlns="http://www.w3.org/2000/svg" viewBox="0 0 101.5 318.59"><defs><style>.cls-1{fill:#b5c2cd;}.cls-2{fill:#434d50;}.cls-3{fill:#555e61;}</style></defs><g id="Layer_2" data-name="Layer 2"><g id="Layer_3" data-name="Layer 3"><polygon class="cls-1" points="62.37 66.64 36.37 66.64 37.37 50.64 61.37 50.64 62.37 66.64"/><path class="cls-1" d="M84.13,86.92l9.3-12.59c-4-1.74-11-4.71-16.81-7.69-7.76-4-8.24-4-9.33-6.91s-5.91-2.09-5.91-2.09l.54,1.06-25,1.8,1.47-2.86s-4.82-.82-5.91,2.09-1.57,2.91-9.33,6.91c-5.77,3-12.78,6-16.82,7.69L17.73,89.77c1,11.31,3.59,42.3,3.61,47.05,0,5.82-3,3.43-2,7.63s2,5.28,2,5.28H81s3.35-5.09,3.35-6.09-3-4-3-6,3-50.71,3-50.71Z"/><path class="cls-1" d="M8.62,74.22c-1.41.55-2.47,1-3,1.21-2,.93-4,.87-2.57,16.92.37,4.11-2.1,2.93-.34,10S-.8,133.15.11,155.25a149.27,149.27,0,0,0,1.28,16.09l-.3,9,4.13.14s-1.47,10-2.64,14.92,3.63,11.12,5.52,14.19S17,208.48,17,208.48l1-28.94,2.12-.56L22,93.71Z"/><path class="cls-1" d="M93.29,74.23c1.4.56,2.46,1,3,1.23,2,.94,4,.89,2.48,16.94-.4,4.1,2.08,2.94.28,10s3.36,30.82,2.33,52.91A148.47,148.47,0,0,1,100,171.39l.26,9-4.13.12s1.41,10,2.55,14.93S95,206.55,93.07,209.6s-8.93-1.16-8.93-1.16l-.83-28.94-2.11-.57L79.77,93.65Z"/><path class="cls-1" d="M20.36,144.46s-1.44,12.83-2.59,19.89,1.81,65.15,2.94,74,3,15.31,2.51,25.45-1.11,24.36-1,33.36c0,.29,4.56.63,4.56.63s-5.52,12.09-10.18,13.79-4.91,6.69-4.91,6.69l36.7.15-1.9-21.34,6.43.2L50.07,181.32l2.46.8,2.32,116.16h2l-.46,20.14,38.76.16a5.51,5.51,0,0,0-3-6c-3.92-2-13.76-5.1-15.51-15.2l8.21-.94s1.51-11.58.35-15.4-4.28-41.2-4.21-44.23,4.32-16.13,3.42-20.17,1.12-49.47.2-52.5-6.23-19.43-6.23-19.43Z"/><path class="cls-2" d="M62.65,54.12S52.38,62.43,49.87,64s-13.54-6.5-13.54-6.5l1-6.89h24Z"/><ellipse class="cls-1" cx="49.37" cy="29.81" rx="17" ry="17.76"/><path class="cls-1" d="M49.37,30.22,32.46,28.66S34.15,45.57,34.15,49,41.22,56.9,44.3,59.1a9.12,9.12,0,0,0,10.14,0C57.52,56.9,64.59,52.33,64.59,49s1.78-20.31,1.78-20.31Z"/><path class="cls-1" d="M33.37,34.64s-2-4-4-1-2.78,7,.61,11,2.39,3,5.39,2S33.37,34.64,33.37,34.64Z"/><path class="cls-1" d="M65.61,34.64s2-4,4-1,2.78,7-.61,11-2.39,3-5.39,2S65.61,34.64,65.61,34.64Z"/><path class="cls-1" d="M29.37,34.64s-3-10-4-13-1.44-6.28,2.28-10.14S42.41,1.84,46.37.64a16.74,16.74,0,0,1,15,3c5,4,16,11,12,21l-6,15Z"/><path class="cls-3" d="M32.84,32.53C32.37,12.64,64.37,6.64,64.37,6.64,35.37,15.64,32.84,32.53,32.84,32.53Z"/><path class="cls-3" d="M49.37,12.64s17,1,18,19C67.42,32.61,63.37,17.64,49.37,12.64Z"/></g></g></svg>