<svg xmlns="http://www.w3.org/2000/svg" viewBox="0 0 99.02 290.73"><defs><style>.cls-1{fill:#b5c2cd;}.cls-2{fill:#434d50;}</style></defs><g id="Layer_2" data-name="Layer 2"><g id="Layer_8_copy" data-name="Layer 8 copy"><path class="cls-1" d="M53.19,1.58s-17.13-7.71-25.41,11,4.32,22.79,1.71,27.31a10.6,10.6,0,0,0,12.4-2.6c5.6-6.06,17.59,5.61,24.6,3.47.4-.12-2-2.78,0-9.63S71.89-1.16,53.19,1.58Z"/><ellipse class="cls-1" cx="47.99" cy="19.05" rx="16.5" ry="17.23"/><path class="cls-1" d="M37.17,44s-1.84,12-3.68,14,29,0,29,0-4.14-11-4.14-15S37.17,44,37.17,44Z"/><path class="cls-2" d="M60.49,41.45s-9,8.31-11.23,9.92-12.89-5.68-12.89-5.68l-.88-9L59.37,38Z"/><path class="cls-1" d="M48,19.45,31.58,17.93s-.09,16.49,1.64,19.7c1.56,2.89,6.86,7.72,9.85,9.85a8.84,8.84,0,0,0,9.85,0c3-2.13,8.8-6.74,9.85-9.85,1.72-5.15,1.72-19.71,1.72-19.71Z"/><path class="cls-1" d="M30.49,56.36S9.49,61,7.49,69l8,10s2,17.39,3,30c1.14,14.38,2,27.91,2,27.91s-2,23.09-2,34.09,2,51,5,67,1,35,1,35H48l-.53-97.83,3-.17,5.09,98H79.49s-1-28-1-37,4.09-57.1,1-72-2.64-47-2-56c1-14,2-32,2-32l10-8s-8-7-26-11.67C55.1,54.13,30.49,56.36,30.49,56.36Z"/><path class="cls-1" d="M29.47,270.1s-5.11,12.1-9.42,13.79-4.56,6.7-4.56,6.7l34,.14L47.77,270H28.09Z"/><path class="cls-1" d="M73.51,270.1s5.11,12.1,9.42,13.79,4.56,6.7,4.56,6.7l-34,.14L55.21,270H74.9Z"/><path class="cls-1" d="M19.93,61.34S3.15,65.67,5,79.41s-8,69.41-4,87.2l4.39-.25s2.16,17.28,8.92,17.7,8.8-.51,8.8-.51Z"/><path class="cls-1" d="M77.67,61.49s16.85,4.07,15.26,17.84,9,69.28,5.28,87.13l-4.39-.19s-1.9,17.31-8.66,17.84-8.8-.38-8.8-.38Z"/></g></g></svg>