<svg xmlns="http://www.w3.org/2000/svg" viewBox="0 0 128.07 263.59"><defs><style>.cls-1{fill:#b5c2cd;}.cls-2{fill:#434d50;}</style></defs><g id="Layer_2" data-name="Layer 2"><g id="Layer_9" data-name="Layer 9"><path class="cls-1" d="M49.92,23.59s-36.48,9.6-43.2,22.08l10.56,14.4L23,98.47c2.88,19.2,1,22.08,1,22.08s-9.6,71-3.84,78.72c3.86,5.15,7.68,23,11.52,36.48,2.11,7.38,0,11.52,0,11.52H49.92s-1.92-5.76-1-23c.73-13.21-4.8-26.88-4.8-26.88l6.19-42.2,5.33,0L52.92,23.59Z"/><path class="cls-1" d="M53.76,23.59S90.24,33.19,97,45.67L86.4,60.07l-5.76,38.4c-2.88,19.2-1,22.08-1,22.08s9.6,71,3.84,78.72c-3.86,5.15-7.68,23-11.52,36.48-2.11,7.38,0,11.52,0,11.52H53.76s1.92-5.76,1-23c-.73-13.21,4.8-26.88,4.8-26.88l-6.19-42.2-5.33,0L50.76,23.59Z"/><path class="cls-1" d="M97,45.59s1.88,11.6,3.8,25,3.84,24,3.84,24l6,3.79-.21,15.41S103.68,120,97,120.55s-12.48,1-14.4-4.8S76.8,75.43,76.8,75.43L88,42.79Z"/><path class="cls-1" d="M115.2,96.55s-12.48,1.92-12.48,10.56,4.26,9.55,7.89,12,13.52,4.29,15.78,0,3.21-9.1-3.51-14.86S119,98.47,115.2,96.55Z"/><polygon class="cls-1" points="112.78 113.83 103.68 263.59 108.23 263.59 118.08 113.83 112.78 113.83"/><path class="cls-1" d="M10.31,42.79S4.8,44.71,3.84,56.23,0,109.72,0,116.71c0,6.72,1.92,22.08,1.92,22.08h4.8s-.5,10.93,3.59,14.1,12.73.3,12.73.3L20.3,75.51,18.57,52Z"/><path class="cls-2" d="M65.28,42.06S55,50.37,52.5,52,39,45.48,39,45.48l1-6.89H64Z"/><ellipse class="cls-1" cx="52" cy="17.76" rx="17" ry="17.76"/><path class="cls-1" d="M52,18.16,35.09,16.6s1.69,16.91,1.69,20.3,7.07,8,10.15,10.14a9.07,9.07,0,0,0,10.14,0c3.08-2.19,10.15-6.76,10.15-10.14S69,16.59,69,16.59Z"/><path class="cls-1" d="M34.28,242.71s-3.76,12.1-6.93,13.79S24,263.2,24,263.2l25,.14-1.26-20.75H33.26Z"/><path class="cls-1" d="M69.9,242.71s4.06,12.1,7.48,13.79S81,263.2,81,263.2l-27,.14,1.36-20.75H71Z"/></g></g></svg>